<?xml version="1.0" encoding="utf-8"?>
<!-- Generator: Adobe Illustrator 22.0.0, SVG Export Plug-In . SVG Version: 6.00 Build 0)  -->
<svg version="1.1" id="Layer_1" xmlns="http://www.w3.org/2000/svg" xmlns:xlink="http://www.w3.org/1999/xlink" x="0px" y="0px"
	 viewBox="0 0 480 342" style="enable-background:new 0 0 480 342;" xml:space="preserve">
<style type="text/css">
	.st0{opacity:0.4;}
	.st1{fill:#FFFFFF;}
	.st2{opacity:0.2;fill:#FFFFFF;}
	.st3{fill:#F4767A;}
	.st4{fill:#ED5561;}
	.st5{fill:#BBCEE1;}
	.st6{fill:#D8395A;}
	.st7{fill:#933E31;}
	.st8{fill:#1C75BC;}
	.st9{fill:#9D4D36;}
	.st10{fill:#A7BCCE;}
	.st11{fill:#2A87C6;}
	.st12{fill:#E8EBF5;}
	.st13{fill:#0F4463;}
	.st14{fill:#0B3B56;}
	.st15{fill:#1F5E77;}
	.st16{fill:#07304B;}
	.st17{fill:url(#SVGID_1_);}
	.st18{fill:#FED4BD;}
	.st19{fill:#F4C5A2;}
	.st20{fill:#DE495A;}
	.st21{fill:#EF4136;}
	.st22{fill:#91A6B7;}
	.st23{fill:#79FF68;}
	.st24{fill:#50E85E;}
	.st25{fill:#3CC743;}
	.st26{fill:#9263C1;}
	.st27{fill:#8444B2;}
	.st28{fill:#7231A3;}
	.st29{fill:#FFA8E1;}
	.st30{fill:#FF7AD2;}
	.st31{fill:#DE64C6;}
	.st32{fill:#FCEC32;}
	.st33{fill:#F5D012;}
	.st34{fill:#EAA10C;}
	.st35{fill:#EDF0F8;}
	.st36{fill:#F0CEC9;}
	.st37{fill:#FFFBF0;}
	.st38{fill:#F5DDD8;}
	.st39{fill:#DFBAB8;}
</style>
<g>
	<g class="st0">
		<g>
			<polygon class="st1" points="233.5,41.8 233.5,43.4 240.1,47.2 240.1,45.6 			"/>
			<polygon class="st1" points="233.5,44.7 233.5,46.3 240.1,50.1 240.1,48.5 			"/>
			<polygon class="st1" points="233.5,47.6 233.5,49.1 240.1,52.9 240.1,51.4 			"/>
			<polygon class="st1" points="283.3,80.7 283.3,79.1 242.6,55.7 242.6,57.2 			"/>
			<polygon class="st1" points="233.5,50.4 233.5,52 240.1,55.8 240.1,54.2 			"/>
			<polygon class="st1" points="233.5,53.3 233.5,54.9 240.1,58.7 240.1,57.1 			"/>
			<polygon class="st1" points="283.3,83.6 283.3,82 242.6,58.5 242.6,60.1 			"/>
			<polygon class="st1" points="233.5,61.9 233.5,63.5 240.1,67.3 240.1,65.7 			"/>
			<polygon class="st1" points="233.5,64.8 233.5,66.3 240.1,70.1 240.1,68.6 			"/>
			<polygon class="st1" points="233.5,76.2 233.5,77.8 240.1,81.6 240.1,80 			"/>
			<polygon class="st1" points="233.5,79.1 233.5,80.7 240.1,84.5 240.1,82.9 			"/>
			<g>
				<polygon class="st1" points="268.3,99.1 242.6,84.3 242.6,85.9 268.3,100.7 				"/>
				<polygon class="st1" points="269.6,99.9 269.6,101.5 283.3,109.4 283.3,107.8 				"/>
			</g>
			<g>
				<polygon class="st1" points="255.5,88.9 242.6,81.5 242.6,83 255.5,90.5 				"/>
				<polygon class="st1" points="256.9,89.7 256.9,91.3 283.3,106.5 283.3,104.9 				"/>
			</g>
			<polygon class="st1" points="279.8,94.3 279.8,95.9 283.3,97.9 283.3,96.3 			"/>
			<polygon class="st1" points="260.9,80.5 242.6,70 242.6,71.6 260.9,82.1 			"/>
			<polygon class="st1" points="253.4,53.3 242.6,47 242.6,48.6 253.4,54.8 			"/>
			<g>
				<polygon class="st1" points="271.1,63.5 254.7,54.1 254.7,55.6 271.1,65.1 				"/>
			</g>
			<polygon class="st1" points="261.6,60.9 250.1,54.2 250.1,55.8 261.6,62.4 			"/>
			<g>
				<polygon class="st1" points="273.6,67.8 262.9,61.6 262.9,63.2 273.6,69.4 				"/>
				<polygon class="st1" points="275,68.6 275,70.2 283.3,75 283.3,73.4 				"/>
			</g>
			<polygon class="st1" points="244.7,54 244.7,55.6 253.4,60.6 253.4,59 			"/>
			<polygon class="st1" points="279.9,74.3 254.7,59.8 254.7,61.4 279.9,75.9 			"/>
			<polygon class="st1" points="265.5,74.6 249.1,65.1 249.1,66.7 265.5,76.2 			"/>
			<polygon class="st1" points="279.9,82.9 266.9,75.4 266.9,77 279.9,84.5 			"/>
			<g>
				<polygon class="st1" points="278.5,90.7 262.2,81.3 262.2,82.9 278.5,92.3 				"/>
			</g>
			<polygon class="st1" points="269.6,88.5 269.6,90 278.5,95.1 278.5,93.6 			"/>
			<polygon class="st1" points="245.8,74.7 242.6,72.9 242.6,74.4 245.8,76.3 			"/>
			<g>
				<polygon class="st1" points="251.7,78.1 251.7,79.7 268.3,89.2 268.3,87.7 				"/>
				<polygon class="st1" points="250.4,77.4 247.1,75.5 247.1,77 250.4,78.9 				"/>
			</g>
			<polygon class="st1" points="265.2,88.8 247.1,78.3 247.1,79.9 265.2,90.3 			"/>
		</g>
	</g>
	<g class="st0">
		<polygon class="st1" points="268.7,15.8 241.3,0 241.3,1.4 268.7,17.2 		"/>
		<polygon class="st1" points="241.3,4.1 283.3,28.4 283.3,27 241.3,2.7 		"/>
		<polygon class="st1" points="270.5,16.9 270.5,18.3 283.3,25.7 283.3,24.3 		"/>
		<polygon class="st1" points="268.7,21.2 241.3,5.3 241.3,6.7 268.7,22.6 		"/>
		<polygon class="st1" points="241.3,9.5 283.3,33.7 283.3,32.3 241.3,8.1 		"/>
		<polygon class="st1" points="270.5,23.6 283.3,31 283.3,29.6 270.5,22.2 		"/>
		<polygon class="st1" points="268.7,30 241.3,14.1 241.3,15.5 268.7,31.4 		"/>
		<polygon class="st1" points="241.3,18.3 283.3,42.5 283.3,41.1 241.3,16.9 		"/>
		<polygon class="st1" points="270.5,32.4 283.3,39.8 283.3,38.4 270.5,31 		"/>
		<polygon class="st1" points="268.7,35.3 241.3,19.5 241.3,20.9 268.7,36.7 		"/>
		<polygon class="st1" points="241.3,23.6 283.3,47.9 283.3,46.5 241.3,22.2 		"/>
		<polygon class="st1" points="270.5,37.7 283.3,45.1 283.3,43.7 270.5,36.3 		"/>
		<polygon class="st1" points="268.7,44.1 241.3,28.3 241.3,29.7 268.7,45.5 		"/>
		<polygon class="st1" points="241.3,32.4 283.3,56.7 283.3,55.3 241.3,31 		"/>
		<polygon class="st1" points="270.5,46.5 283.3,53.9 283.3,52.5 270.5,45.1 		"/>
		<polygon class="st1" points="268.7,49.4 241.3,33.6 241.3,35 268.7,50.8 		"/>
		<polygon class="st1" points="241.3,37.7 283.3,62 283.3,60.6 241.3,36.3 		"/>
		<polygon class="st1" points="270.5,51.9 283.3,59.3 283.3,57.9 270.5,50.5 		"/>
	</g>
	<path class="st2" d="M194.9,35.8L174.5,24c-1-0.6-2.2,0.1-2.2,1.3v24.5c0,1.2,0.6,2.3,1.7,2.9l20.4,11.8c1,0.6,2.3-0.1,2.3-1.3
		l0-24.4C196.6,37.5,196,36.4,194.9,35.8z"/>
	<g>
		<g>
			<g>
				<path class="st3" d="M185.8,56.4L159.1,41c-0.8-0.5-1.8-0.5-2.7,0.1l0,0l-5.9,3.4l2.7,3.7l1,1.2v26.5c0,1.6,0.8,3,2.2,3.8
					l20,11.6l0.2,1.1l4.1,5.7l6.3-3.7c0,0,0,0,0,0l0,0v0c0.6-0.4,1-1,1-1.7l0-32.3C188.1,58.7,187.3,57.2,185.8,56.4z"/>
				<path class="st4" d="M179.6,60.1l-27.1-15.6c-1.3-0.8-3,0.2-3,1.7v32.4c0,1.6,0.8,3,2.2,3.8l27.1,15.7c1.4,0.8,3.1-0.2,3.1-1.8
					l0-32.3C181.9,62.4,181,60.9,179.6,60.1z"/>
			</g>
		</g>
		<g>
			<path class="st5" d="M180.8,98.1L180.8,98.1L180.8,98.1C180.8,98.1,180.8,98.1,180.8,98.1z"/>
			<path class="st6" d="M181.9,96.4l0-32.3c0-0.5-0.1-1.1-0.3-1.6l6.3-3.6c0.2,0.5,0.3,1,0.3,1.5l0,32.3c0,0.8-0.4,1.4-1,1.7v0l0,0
				c0,0,0,0,0,0l-6.2,3.7C181.4,97.8,181.9,97.1,181.9,96.4z"/>
		</g>
	</g>
	<g>
		<path class="st1" d="M155.9,60l-3.3-1.9l0,11.9l2.2,1.3l0-4.2l0.9,0.5c1.3,0.7,2.3,1,3,0.7c0.7-0.3,1-1.1,1-2.3
			c0-1.2-0.3-2.3-1-3.3C158.1,61.6,157.2,60.7,155.9,60z M157.1,65.8c-0.3,0.1-0.8,0-1.5-0.4l-0.7-0.4l0-3.5l1,0.6
			c0.6,0.3,1,0.7,1.3,1.2c0.3,0.4,0.4,1,0.4,1.6C157.6,65.3,157.4,65.7,157.1,65.8z"/>
		<polygon class="st1" points="167.4,71.3 163.3,68.9 163.3,64.3 161.1,63 161.1,74.9 163.3,76.1 163.3,71 167.4,73.4 167.4,78.5 
			169.6,79.7 169.6,67.9 167.4,66.6 		"/>
		<path class="st1" d="M177.8,73.5c-0.7-1-1.6-1.9-2.9-2.6l-3.3-1.9l0,11.9l2.2,1.3l0-4.2l0.9,0.5c1.3,0.7,2.3,1,3,0.7
			c0.7-0.3,1-1,1.1-2.3C178.8,75.6,178.4,74.5,177.8,73.5z M176,76.7c-0.3,0.1-0.8,0-1.5-0.4l-0.7-0.4l0-3.5l1,0.6
			c0.6,0.3,1,0.7,1.3,1.2c0.3,0.4,0.4,1,0.4,1.6C176.5,76.3,176.4,76.6,176,76.7z"/>
	</g>
	<g class="st0">
		<g>
			<polygon class="st1" points="122.6,57.6 122.6,59.2 129.2,63 129.2,61.4 			"/>
			<polygon class="st1" points="122.6,60.5 122.6,62.1 129.2,65.9 129.2,64.3 			"/>
			<polygon class="st1" points="122.6,63.4 122.6,64.9 129.2,68.7 129.2,67.2 			"/>
			<polygon class="st1" points="172.4,96.5 172.4,94.9 131.7,71.5 131.7,73 			"/>
			<polygon class="st1" points="122.6,66.2 122.6,67.8 129.2,71.6 129.2,70 			"/>
			<polygon class="st1" points="122.6,69.1 122.6,70.7 129.2,74.5 129.2,72.9 			"/>
			<polygon class="st1" points="172.4,99.4 172.4,97.8 131.7,74.3 131.7,75.9 			"/>
			<polygon class="st1" points="122.6,77.7 122.6,79.3 129.2,83.1 129.2,81.5 			"/>
			<polygon class="st1" points="122.6,80.6 122.6,82.1 129.2,85.9 129.2,84.4 			"/>
			<polygon class="st1" points="122.6,92 122.6,93.6 129.2,97.4 129.2,95.9 			"/>
			<polygon class="st1" points="122.6,94.9 122.6,96.5 129.2,100.3 129.2,98.7 			"/>
			<g>
				<polygon class="st1" points="157.3,115 131.7,100.1 131.7,101.7 157.3,116.5 				"/>
				<polygon class="st1" points="158.7,115.7 158.7,117.3 172.4,125.2 172.4,123.6 				"/>
			</g>
			<g>
				<polygon class="st1" points="144.6,104.7 131.7,97.3 131.7,98.8 144.6,106.3 				"/>
				<polygon class="st1" points="145.9,105.5 145.9,107.1 172.4,122.3 172.4,120.8 				"/>
			</g>
			<polygon class="st1" points="168.9,110.1 168.9,111.7 172.4,113.7 172.4,112.2 			"/>
			<polygon class="st1" points="149.9,96.4 131.7,85.8 131.7,87.4 149.9,97.9 			"/>
			<polygon class="st1" points="142.4,69.1 131.7,62.9 131.7,64.4 142.4,70.7 			"/>
			<g>
				<polygon class="st1" points="160.1,79.3 143.8,69.9 143.8,71.4 160.1,80.9 				"/>
			</g>
			<polygon class="st1" points="150.6,76.7 139.1,70 139.1,71.6 150.6,78.2 			"/>
			<g>
				<polygon class="st1" points="162.7,83.6 152,77.5 152,79 162.7,85.2 				"/>
				<polygon class="st1" points="164,84.4 164,86 172.4,90.8 172.4,89.2 				"/>
			</g>
			<polygon class="st1" points="133.8,69.8 133.8,71.4 142.4,76.4 142.4,74.8 			"/>
			<polygon class="st1" points="169,90.1 143.8,75.6 143.8,77.2 169,91.7 			"/>
			<polygon class="st1" points="154.6,90.4 138.1,80.9 138.1,82.5 154.6,92 			"/>
			<polygon class="st1" points="169,98.7 155.9,91.2 155.9,92.8 169,100.3 			"/>
			<g>
				<polygon class="st1" points="167.5,106.5 151.3,97.1 151.3,98.7 167.5,108.1 				"/>
			</g>
			<polygon class="st1" points="158.7,104.3 158.7,105.8 167.5,110.9 167.5,109.4 			"/>
			<polygon class="st1" points="134.8,90.5 131.7,88.7 131.7,90.2 134.8,92.1 			"/>
			<g>
				<polygon class="st1" points="140.8,93.9 140.8,95.5 157.3,105.1 157.3,103.5 				"/>
				<polygon class="st1" points="139.4,93.2 136.2,91.3 136.2,92.9 139.4,94.7 				"/>
			</g>
			<polygon class="st1" points="154.3,104.6 136.2,94.2 136.2,95.7 154.3,106.2 			"/>
		</g>
	</g>
	<path class="st2" d="M319.3,78l-20.4-11.8c-1-0.6-2.2,0.1-2.2,1.3V92c0,1.2,0.6,2.3,1.7,2.9l20.4,11.8c1,0.6,2.3-0.1,2.3-1.3
		l0-24.4C321,79.8,320.3,78.7,319.3,78z"/>
	<path class="st2" d="M347.2,30.8L326.7,19c-1-0.6-2.2,0.1-2.2,1.3v24.5c0,1.2,0.6,2.3,1.7,2.9l20.4,11.8c1,0.6,2.3-0.1,2.3-1.3
		l0-24.4C348.9,32.5,348.2,31.4,347.2,30.8z"/>
	<path class="st2" d="M410.2,158.6l-20.4-11.8c-1-0.6-2.2,0.1-2.2,1.3v24.5c0,1.2,0.6,2.3,1.7,2.9l20.4,11.8c1,0.6,2.3-0.1,2.3-1.3
		l0-24.4C412,160.4,411.3,159.3,410.2,158.6z"/>
	<path class="st2" d="M232.4,98.5L212,86.7c-1-0.6-2.2,0.1-2.2,1.3v24.5c0,1.2,0.6,2.3,1.7,2.9l20.4,11.8c1,0.6,2.3-0.1,2.3-1.3
		l0-24.4C234.1,100.2,233.5,99.1,232.4,98.5z"/>
	<path class="st7" d="M155.5,299.4c-5.4,0.1-3.6-4.1-3.6-4.1c-8-2.5-12-1.1-12-1.1c-2,7.1-1.2,11.4-1.3,13.1c0,0.8,0.6,1.4,1.4,1.7
		c4.3,1.6,8.3,2.7,16.3,1.9c5.9-0.6,12.2-6.1,10.8-11.7C166.2,295.7,161,299.4,155.5,299.4z"/>
	<path class="st8" d="M153.2,248.5c-1.6-2.1-4.3-3.8-8.8-2.6l-48.5,9.4l1.8,12.5c0,0,7.4,9.8,20.4,6.1c13-3.7,21.4-9.8,21.4-9.8
		l-1.6,34.4c0,0,7.6,2.4,14.4-1.7c1.1-0.7,2.2-33.8,2.5-42.3C154.9,251.9,154.6,250.3,153.2,248.5z"/>
	<path class="st9" d="M178.8,309.4c-5.6,0.1-3.8-4.2-3.8-4.2c-8.4-2.5-12.5-1.1-12.5-1.1c-2.1,7.4-1.2,11.8-1.3,13.6
		c0,0.9,0.6,1.4,1.4,1.7c4.5,1.7,8.6,2.8,17,2c6.2-0.6,12.7-6.3,11.2-12.2C189.9,305.5,184.5,309.3,178.8,309.4z"/>
	<g>
		<polygon class="st5" points="123.7,295.7 82,271.7 82,277.5 123.7,301.5 		"/>
		<polygon class="st1" points="119.9,249.9 82,271.7 123.7,295.7 161.6,273.9 		"/>
		<polygon class="st10" points="161.6,273.9 123.7,295.7 123.7,301.5 161.6,279.6 		"/>
	</g>
	<path class="st11" d="M176.4,256.4c-1.7-2.1-4.5-4-9.2-2.7l-50.4,9.7l1.9,12.9c0,0,7.7,10.2,21.2,6.3s22.3-10.2,22.3-10.2
		l-1.7,35.7c0,0,7.9,2.4,14.9-1.8c1.2-0.7,2.3-35.1,2.6-44C178.2,260,177.9,258.4,176.4,256.4z"/>
	<g>
		<path class="st12" d="M86.4,183.6l86-49.9c3.6-2.1,8.1-2.1,11.8,0L319.6,212c3.5,2,3.5,7,0,9l-84.1,48.8c-4.3,2.5-9.7,2.5-14,0
			L86.4,191.7C83.3,189.9,83.3,185.4,86.4,183.6z"/>
		<path class="st10" d="M86.4,191.7l135.1,78.2c4.3,2.5,9.7,2.5,14,0l84.1-48.8c1.7-1,2.6-2.7,2.6-4.5v6.4c0,0,0,0,0,0.1v0.1l0,0
			c0,1.7-0.9,3.4-2.6,4.4l-84.1,48.8c-4.3,2.5-9.7,2.5-14,0L86.4,198.1c-1.6-0.9-2.3-2.5-2.3-4.1l0,0v-6.4
			C84.1,189.2,84.9,190.8,86.4,191.7z"/>
		<path class="st5" d="M86.4,191.7l135.1,78.2c2,1.1,4.2,1.7,6.4,1.8v6.5c-2.2-0.1-4.4-0.7-6.4-1.8L86.4,198.1
			c-1.6-0.9-2.3-2.5-2.3-4.1l0,0v-6.4C84.1,189.2,84.9,190.8,86.4,191.7z"/>
	</g>
	<g>
		<g>
			<g>
				<path class="st13" d="M149.9,201.7l14.6-8.4c0.7-0.4,1.5-0.4,2.2,0l45.1,26.1c0.6,0.4,0.7,1.3,0,1.7l-14.2,8.2
					c-0.8,0.5-1.8,0.5-2.6,0l-45-26C149.3,202.8,149.3,202,149.9,201.7z"/>
				<path class="st14" d="M149.9,203.2l45,26c0.8,0.5,1.8,0.5,2.6,0l14.2-8.2c0.3-0.2,0.5-0.5,0.5-0.8v1.7c0,0,0,0,0,0v0l0,0
					c0,0.3-0.2,0.6-0.5,0.8l-14.2,8.2c-0.8,0.5-1.8,0.5-2.6,0l-45-26c-0.3-0.2-0.4-0.5-0.4-0.8h0v-1.7
					C149.5,202.7,149.6,203,149.9,203.2z"/>
			</g>
			<g>
				<polygon class="st15" points="164.3,195.6 166.2,194.5 168.3,195.7 166.4,196.8 				"/>
				<polygon class="st15" points="166.9,197.1 168.8,196 170.8,197.2 169,198.3 				"/>
				<polygon class="st15" points="169.5,198.6 171.4,197.5 173.4,198.7 171.6,199.8 				"/>
				<polygon class="st15" points="172.1,200.1 173.9,199 176,200.2 174.2,201.2 				"/>
				<polygon class="st15" points="174.7,201.5 176.5,200.5 178.6,201.7 176.8,202.7 				"/>
				<polygon class="st15" points="177.3,203 179.1,202 181.2,203.2 179.4,204.2 				"/>
				<polygon class="st15" points="179.9,204.5 181.7,203.5 183.8,204.7 182,205.7 				"/>
				<polygon class="st15" points="182.5,206 184.3,205 186.4,206.2 184.6,207.2 				"/>
				<polygon class="st15" points="185.1,207.5 186.9,206.5 189,207.6 187.1,208.7 				"/>
				<polygon class="st15" points="187.7,209 189.5,207.9 191.6,209.1 189.7,210.2 				"/>
				<polygon class="st15" points="190.2,210.5 192.1,209.4 194.2,210.6 192.3,211.7 				"/>
				<polygon class="st15" points="192.8,212 194.7,210.9 196.7,212.1 194.9,213.2 				"/>
				<polygon class="st15" points="197.3,212.4 199.3,213.6 197.5,214.7 195.4,213.5 				"/>
				<polygon class="st15" points="164.1,198.1 162,197 163.8,195.9 165.9,197.1 				"/>
				<polygon class="st15" points="168.5,198.6 166.7,199.6 164.6,198.4 166.4,197.4 				"/>
				<polygon class="st15" points="171.1,200.1 169.2,201.1 167.2,199.9 169,198.9 				"/>
				<polygon class="st15" points="173.7,201.6 171.8,202.6 169.8,201.4 171.6,200.4 				"/>
				<polygon class="st15" points="176.2,203.1 174.4,204.1 172.3,202.9 174.2,201.9 				"/>
				<polygon class="st15" points="178.8,204.5 177,205.6 174.9,204.4 176.8,203.3 				"/>
				<polygon class="st15" points="181.4,206 179.6,207.1 177.5,205.9 179.4,204.8 				"/>
				<polygon class="st15" points="184,207.5 182.2,208.6 180.1,207.4 181.9,206.3 				"/>
				<polygon class="st15" points="186.6,209 184.8,210.1 182.7,208.9 184.5,207.8 				"/>
				<polygon class="st15" points="189.2,210.5 187.4,211.6 185.3,210.4 187.1,209.3 				"/>
				<polygon class="st15" points="191.8,212 190,213.1 187.9,211.9 189.7,210.8 				"/>
				<polygon class="st15" points="194.4,213.5 192.6,214.5 190.5,213.4 192.3,212.3 				"/>
				<polygon class="st15" points="194.9,213.8 197,215 195.1,216 193.1,214.8 				"/>
				<polygon class="st15" points="161.7,199.5 159.6,198.3 161.4,197.3 163.5,198.5 				"/>
				<polygon class="st15" points="166.1,200 164.3,201 162.2,199.8 164,198.8 				"/>
				<polygon class="st15" points="164.8,201.3 166.6,200.2 168.7,201.4 166.9,202.5 				"/>
				<polygon class="st15" points="171.3,202.9 169.5,204 167.4,202.8 169.2,201.7 				"/>
				<polygon class="st15" points="173.9,204.4 172.1,205.5 170,204.3 171.8,203.2 				"/>
				<polygon class="st15" points="176.5,205.9 174.7,207 172.6,205.8 174.4,204.7 				"/>
				<polygon class="st15" points="179.1,207.4 177.2,208.5 175.2,207.3 177,206.2 				"/>
				<polygon class="st15" points="181.7,208.9 179.8,210 177.7,208.8 179.6,207.7 				"/>
				<polygon class="st15" points="184.2,210.4 182.4,211.4 180.3,210.2 182.2,209.2 				"/>
				<polygon class="st15" points="186.8,211.9 185,212.9 182.9,211.7 184.8,210.7 				"/>
				<polygon class="st15" points="189.4,213.4 187.6,214.4 185.5,213.2 187.3,212.2 				"/>
				<polygon class="st15" points="188.1,214.7 189.9,213.7 192,214.9 190.2,215.9 				"/>
				<polygon class="st15" points="192.5,215.2 194.6,216.4 192.8,217.4 190.7,216.2 				"/>
				<polygon class="st15" points="159.3,200.9 157.3,199.7 159.1,198.6 161.2,199.8 				"/>
				<polygon class="st15" points="159.8,201.2 161.7,200.1 163.7,201.3 161.9,202.4 				"/>
				<polygon class="st15" points="162.4,202.7 164.3,201.6 166.3,202.8 164.5,203.9 				"/>
				<polygon class="st15" points="165,204.2 166.9,203.1 168.9,204.3 167.1,205.4 				"/>
				<polygon class="st15" points="167.6,205.7 169.4,204.6 171.5,205.8 169.7,206.8 				"/>
				<polygon class="st15" points="170.2,207.1 172,206.1 174.1,207.3 172.3,208.3 				"/>
				<polygon class="st15" points="172.8,208.6 174.6,207.6 176.7,208.8 174.9,209.8 				"/>
				<polygon class="st15" points="175.4,210.1 177.2,209.1 179.3,210.3 177.5,211.3 				"/>
				<polygon class="st15" points="178,211.6 179.8,210.6 181.9,211.8 180.1,212.8 				"/>
				<polygon class="st15" points="180.6,213.1 182.4,212 184.5,213.2 182.6,214.3 				"/>
				<polygon class="st15" points="183.2,214.6 185,213.5 187.1,214.7 185.2,215.8 				"/>
				<polygon class="st15" points="185.7,216.1 187.6,215 189.6,216.2 187.8,217.3 				"/>
				<polygon class="st15" points="190.2,216.5 192.2,217.7 190.4,218.8 188.3,217.6 				"/>
				<polygon class="st15" points="157,202.3 154.9,201.1 156.7,200 158.8,201.2 				"/>
				<polygon class="st15" points="157.5,202.6 159.3,201.5 161.4,202.7 159.6,203.7 				"/>
				<polygon class="st15" points="160.1,204 161.9,203 164,204.2 162.2,205.2 				"/>
				<polygon class="st15" points="162.7,205.5 164.5,204.5 166.6,205.7 164.7,206.7 				"/>
				<polygon class="st15" points="165.3,207 167.1,206 169.2,207.2 167.3,208.2 				"/>
				<polygon class="st15" points="167.8,208.5 169.7,207.5 171.7,208.7 169.9,209.7 				"/>
				<polygon class="st15" points="170.4,210 172.3,208.9 174.3,210.1 172.5,211.2 				"/>
				<polygon class="st15" points="173,211.5 174.8,210.4 176.9,211.6 175.1,212.7 				"/>
				<polygon class="st15" points="175.6,213 177.4,211.9 179.5,213.1 177.7,214.2 				"/>
				<polygon class="st15" points="178.2,214.5 180,213.4 182.1,214.6 180.3,215.7 				"/>
				<polygon class="st15" points="180.8,216 182.6,214.9 184.7,216.1 182.9,217.2 				"/>
				<polygon class="st15" points="183.4,217.5 185.2,216.4 187.3,217.6 185.5,218.7 				"/>
				<polygon class="st15" points="187.8,217.9 189.9,219.1 188.1,220.1 186,219 				"/>
				<polygon class="st15" points="154.4,201.4 156.4,202.6 154.6,203.6 152.5,202.4 				"/>
				<polygon class="st15" points="159,204.1 157.2,205.1 155.1,203.9 156.9,202.9 				"/>
				<polygon class="st15" points="161.6,205.5 159.8,206.6 157.7,205.4 159.5,204.4 				"/>
				<polygon class="st15" points="164.2,207 162.4,208.1 160.3,206.9 162.1,205.8 				"/>
				<polygon class="st15" points="166.8,208.5 165,209.6 162.9,208.4 164.7,207.3 				"/>
				<polygon class="st15" points="169.4,210 167.6,211.1 165.5,209.9 167.3,208.8 				"/>
				<polygon class="st15" points="169.9,210.3 172.5,211.8 172.5,211.8 173,212.1 175.1,213.3 175.1,213.3 176.1,213.9 177.7,214.8 
					177.7,214.8 179.3,215.7 182.3,217.5 180.5,218.5 177.3,216.7 175.8,215.8 175.8,215.8 174.3,214.9 173.2,214.4 173.2,214.4 
					171.2,213.2 170.7,212.9 170.7,212.9 168.1,211.4 				"/>
				<polygon class="st15" points="184.9,219 183.1,220 181,218.8 182.8,217.8 				"/>
				<polygon class="st15" points="187.5,220.5 185.7,221.5 183.6,220.3 185.4,219.3 				"/>
			</g>
			<g>
				<polygon class="st15" points="200.6,216.5 202.4,215.4 204.5,216.6 202.7,217.6 				"/>
				<polygon class="st15" points="203.2,217.9 205,216.9 207.1,218.1 205.3,219.1 				"/>
				<polygon class="st15" points="205.8,219.4 207.6,218.4 209.7,219.6 207.9,220.6 				"/>
				<polygon class="st15" points="202.1,218 200.3,219 198.2,217.8 200.1,216.8 				"/>
				<polygon class="st15" points="204.7,219.5 202.9,220.5 200.8,219.3 202.7,218.3 				"/>
				<polygon class="st15" points="207.3,220.9 205.5,222 203.4,220.8 205.3,219.7 				"/>
				<polygon class="st15" points="199.8,219.3 198,220.4 195.9,219.2 197.7,218.1 				"/>
				<polygon class="st15" points="202.4,220.8 200.6,221.9 198.5,220.7 200.3,219.6 				"/>
				<polygon class="st15" points="205,222.3 203.1,223.4 201.1,222.2 202.9,221.1 				"/>
				<polygon class="st15" points="193.5,220.6 195.3,219.5 197.4,220.7 195.6,221.8 				"/>
				<polygon class="st15" points="196.1,222.1 197.9,221 200,222.2 198.2,223.2 				"/>
				<polygon class="st15" points="198.7,223.5 200.5,222.5 202.6,223.7 200.8,224.7 				"/>
				<polygon class="st15" points="191.2,221.9 193,220.9 195.1,222.1 193.2,223.1 				"/>
				<polygon class="st15" points="193.7,223.4 195.6,222.4 197.6,223.6 195.8,224.6 				"/>
				<polygon class="st15" points="196.3,224.9 198.2,223.9 200.2,225 198.4,226.1 				"/>
				<polygon class="st15" points="192.7,223.4 190.9,224.5 188.8,223.3 190.6,222.2 				"/>
				<polygon class="st15" points="195.3,224.9 193.5,226 191.4,224.8 193.2,223.7 				"/>
			</g>
		</g>
		<g>
			<path class="st15" d="M182.3,187.7l14.4-8.3c0.6-0.4,1.4-0.4,2,0l34.1,19.7c0.6,0.3,0.6,1.2,0,1.5l-14,8.1
				c-0.7,0.4-1.6,0.4-2.3,0l-34-19.6C181.8,188.7,181.8,188,182.3,187.7z"/>
			<path class="st16" d="M182.3,189l34,19.6c0.7,0.4,1.6,0.4,2.3,0l14-8.1c0.3-0.2,0.4-0.5,0.4-0.7v1.7c0,0,0,0,0,0v0l0,0
				c0,0.3-0.1,0.6-0.4,0.7l-14,8.1c-0.7,0.4-1.6,0.4-2.3,0l-34-19.6c-0.3-0.2-0.4-0.4-0.4-0.7l0,0v-1.7
				C181.9,188.6,182,188.8,182.3,189z"/>
			<path class="st14" d="M182.3,189l34,19.6c0.3,0.2,0.7,0.3,1.1,0.3v1.7c-0.4,0-0.7-0.1-1.1-0.3l-34-19.6c-0.3-0.2-0.4-0.4-0.4-0.7
				l0,0v-1.7C181.9,188.6,182,188.8,182.3,189z"/>
		</g>
		<g>
			<polygon class="st13" points="219.5,189 193.1,173.6 193.1,186.8 219.5,202.1 			"/>
			<polygon class="st16" points="196.7,171.5 193.1,173.6 219.5,189 223.2,186.8 			"/>
			<polygon class="st16" points="223.2,186.8 219.5,189 219.5,202.1 223.2,199.9 			"/>
		</g>
		<g>
			<g>
				<linearGradient id="SVGID_1_" gradientUnits="userSpaceOnUse" x1="196.0815" y1="194.2465" x2="221.4003" y2="110.9399">
					<stop  offset="0" style="stop-color:#1C75BC"/>
					<stop  offset="0.2787" style="stop-color:#2077BC"/>
					<stop  offset="0.5411" style="stop-color:#2B7EBC"/>
					<stop  offset="0.7962" style="stop-color:#3E88BC"/>
					<stop  offset="1" style="stop-color:#5394BC"/>
				</linearGradient>
				<polygon class="st17" points="166.3,106.9 246.8,153.6 246.8,212.8 166.3,165.9 				"/>
				<polygon class="st16" points="246.8,153.6 249.4,151.9 249.4,211.2 246.8,212.8 				"/>
				<polygon class="st15" points="166.3,106.9 169.1,105.3 249.4,151.9 246.8,153.6 				"/>
			</g>
			<path class="st14" d="M166.3,106.9v59l80.5,46.8l0-59.2L166.3,106.9z M244.9,209.5l-76.6-44.6v-54.6l76.6,44.5L244.9,209.5z"/>
		</g>
	</g>
	<path class="st18" d="M136.5,180c-0.8,8.5-7.1,14.8-13.9,14.1c-6.9-0.7-11.7-8.1-10.9-16.5c0.8-8.5,7.1-14.8,13.9-14.1
		C132.5,164.1,137.4,171.5,136.5,180z"/>
	<path class="st19" d="M146.8,199.7c0,0,3,0.7,4,0.8c1,0.1,5,0.9,6.6,0.4c1.6-0.5-1.4-1.5-2.1-2.1c-0.7-0.5-0.7-1.9,0.9-2.4
		c1.6-0.5,5.3-0.3,7.2-0.5c1.9-0.3-1.9-6.1-5.1-6.7c-3.2-0.5-5.8-0.2-8.6,1.2c-2.7,1.3-4.2,3.6-5.4,4L146.8,199.7z"/>
	<path class="st4" d="M147.1,191.7l-20.4,5.1l-1,13l24.1-8.3C150.3,197,147.1,191.7,147.1,191.7z"/>
	<path class="st4" d="M96.8,197.2c0,0-5.6,7.1,0,16.9c0,0,3.9,5.5,14.8,0.1L96.8,197.2z"/>
	<path class="st20" d="M113.5,188.9c0,0,8.8-0.6,15.7,4.2c0,0,0.5,1.4,1.9,2.4c1.4,0.9,8.2,3.7,8.2,3.7s-3,40.1,0.4,59.7
		c0,0-14.9,11.6-38.1,0c0,0-3.4-49.3-4.9-61.6C96.8,197.2,100.7,192.4,113.5,188.9z"/>
	<g>
		<polygon class="st5" points="109.7,255.2 68,231.1 82,271.7 123.7,295.7 		"/>
		<polygon class="st1" points="72.6,228.5 68,231.1 109.7,255.2 114.3,252.5 		"/>
		<polygon class="st10" points="114.3,252.5 109.7,255.2 123.7,295.7 128.4,293 		"/>
	</g>
	<path class="st19" d="M174.2,217.5c0,0,2.3-2.3,3.1-2.9c0.9-0.7,3.9-3.5,5.6-3.9c1.7-0.4-1.2,2.6-1.6,3.5c-0.4,0.9,1.8-0.7,3.4-1.3
		c1.7-0.6,3.5-0.5,5.5,0.2c3.9,1.4,3.7,9.3,0.5,8.4c-5.3-1.5-7.7,2.7-10.8,3.6c-2.2,0.6-3.1,0.6-4.5,0.8L174.2,217.5z"/>
	<path class="st4" d="M139.3,199.2l17.2,22.8l17.9-5.3c0,0,3.8,4.8,2.6,10l-23.9,9.3l-19.4-21.3
		C133.7,214.6,127.2,201.1,139.3,199.2z"/>
	<path class="st9" d="M129.7,156.2c0,0,1.3,3.2-5,4c-6.3,0.9-14.2,4-16.2,10.7c-1.3,4.3,0.2,8.9,2.4,12.6c0.7,1.3,1.6,2.5,2.5,3.7
		c0,0,4.2,1.1,9.3-1.6c0,0,3.1-2.1,5-6.1c0,0,3.8,1.6,4.9-1.6c0.9-2.3,3.6-2.9,5.1-4.1C137.8,173.8,146.3,159.8,129.7,156.2z"/>
	<g>
		<polygon class="st5" points="366,277.7 338.4,261.7 338.4,272 366,288 		"/>
		<polygon class="st1" points="366.9,245.3 338.4,261.7 366,277.7 394.5,261.3 		"/>
		<polygon class="st10" points="394.5,261.3 366,277.7 366,288 394.5,271.5 		"/>
	</g>
	<g>
		<polygon class="st5" points="366,260.8 338.4,244.8 338.4,255.1 366,271.1 		"/>
		<polygon class="st1" points="366.9,228.4 338.4,244.8 366,260.8 394.5,244.4 		"/>
		<polygon class="st10" points="394.5,244.4 366,260.8 366,271.1 394.5,254.6 		"/>
	</g>
	<g>
		<polygon class="st5" points="319.3,304.7 291.8,288.7 291.8,299 319.3,315 		"/>
		<polygon class="st1" points="320.3,272.3 291.8,288.7 319.3,304.7 347.9,288.3 		"/>
		<polygon class="st10" points="347.9,288.3 319.3,304.7 319.3,315 347.9,298.5 		"/>
	</g>
	<g>
		<polygon class="st5" points="319.3,287.8 291.8,271.8 291.8,282.1 319.3,298.1 		"/>
		<polygon class="st1" points="320.3,255.4 291.8,271.8 319.3,287.8 347.9,271.4 		"/>
		<polygon class="st10" points="347.9,271.4 319.3,287.8 319.3,298.1 347.9,281.6 		"/>
	</g>
	<g>
		<polygon class="st5" points="272.7,331.7 245.1,315.7 245.1,326 272.7,342 		"/>
		<polygon class="st1" points="273.6,299.3 245.1,315.7 272.7,331.7 301.2,315.3 		"/>
		<polygon class="st10" points="301.2,315.3 272.7,331.7 272.7,342 301.2,325.5 		"/>
	</g>
	<g>
		<polygon class="st5" points="272.7,314.8 245.1,298.8 245.1,309.2 272.7,325.1 		"/>
		<polygon class="st1" points="273.6,282.5 245.1,298.8 272.7,314.8 301.2,298.4 		"/>
		<polygon class="st10" points="301.2,298.4 272.7,314.8 272.7,325.1 301.2,308.6 		"/>
	</g>
	<g>
		<path class="st8" d="M281.3,304.7l-1.7-1c-1.2,0.5-2.6,0.8-4.1,1l0,1.4l-4.2,0l0-1.4c-1.4-0.2-2.8-0.5-4.1-1l-1.7,1l-3-1.7l1.7-1
			c-0.8-0.7-1.4-1.5-1.7-2.3l-2.4,0l0-2.4l2.4,0c0.3-0.8,0.8-1.6,1.7-2.4l-1.7-1l3-1.7l1.7,1c1.2-0.5,2.6-0.8,4.1-1l0-1.4h4.2l0,1.4
			c1.4,0.2,2.8,0.5,4.1,1l1.7-1l3,1.7l-1.7,1c0.8,0.7,1.4,1.5,1.7,2.4l2.4,0l0,2.4l-2.4,0c-0.3,0.8-0.8,1.6-1.7,2.4l1.7,1
			L281.3,304.7z M269.5,300.7c2.2,1.2,5.7,1.2,7.8,0c2.1-1.2,2.1-3.3,0-4.5c-2.2-1.2-5.7-1.2-7.8,0
			C267.3,297.4,267.3,299.5,269.5,300.7"/>
	</g>
	<polygon class="st21" points="322.4,264.4 325.1,270.1 327.7,275.8 317.8,274.3 307.9,272.7 315.2,268.5 	"/>
	<g>
		<path class="st22" d="M356.1,243.2c-1.5-0.9-0.8-2.1,2-3.8c1.4-0.8,2.6-1.3,3.8-1.5c1.1-0.2,2-0.1,2.7,0.2
			c0.3,0.2,0.6,0.4,0.7,0.7c0.1,0.2,0.3,0.5,0.3,0.7l2.6-0.6c-0.2-0.5-0.4-0.8-0.7-1.1c-0.3-0.3-0.7-0.6-1.1-0.9
			c-1.4-0.8-3-1.1-4.9-0.9c-1.9,0.2-3.8,0.9-5.8,2c-2,1.2-3.2,2.3-3.5,3.3c-0.4,1.1,0.2,2,1.5,2.8c0.9,0.5,1.9,0.9,2.9,1l2-1.2
			C357.7,243.8,356.8,243.6,356.1,243.2z"/>
		<path class="st22" d="M368.5,246.4c0.2-0.5,0.2-1.2,0-1.9c-0.2-0.6-0.3-1-0.2-1.3c0.1-0.3,0.3-0.6,0.7-0.8s0.8-0.4,1.3-0.4
			c0.4,0,0.9,0.1,1.2,0.3c0.3,0.2,0.6,0.4,0.8,0.7c0.2,0.2,0.3,0.5,0.4,0.7l2.6-0.6c-0.3-0.8-1-1.5-1.9-2c-1-0.6-2.1-0.9-3.3-0.8
			c-1.2,0-2.3,0.3-3.4,0.9c-0.5,0.3-1,0.6-1.2,1c-0.3,0.3-0.4,0.7-0.5,1c-0.1,0.4,0,0.8,0.2,1.3c0.2,0.6,0.2,1.1,0.2,1.4
			c-0.1,0.4-0.3,0.6-0.7,0.9c-0.4,0.2-0.8,0.4-1.3,0.4c-0.5,0-0.9-0.1-1.4-0.4c-0.8-0.4-1.3-1.1-1.6-2l-2.3,1.3c0.3,0.7,1,1.3,2.1,2
			c1.1,0.6,2.2,0.9,3.4,0.9c1.2,0,2.4-0.4,3.5-1C367.8,247.3,368.3,246.9,368.5,246.4z"/>
		<path class="st22" d="M380.5,245c-1-0.6-2.1-0.9-3.3-0.8c-1.2,0-2.3,0.3-3.4,0.9c-0.5,0.3-1,0.6-1.2,1c-0.3,0.3-0.4,0.7-0.5,1
			c-0.1,0.4,0,0.8,0.2,1.3c0.2,0.6,0.2,1.1,0.2,1.4c-0.1,0.3-0.3,0.6-0.7,0.9c-0.4,0.2-0.8,0.4-1.3,0.4c-0.5,0-0.9-0.1-1.4-0.4
			c-0.8-0.4-1.3-1.1-1.6-2l-2.3,1.3c0.3,0.7,1,1.3,2.1,1.9c1.1,0.6,2.2,0.9,3.4,0.9c1.2,0,2.4-0.4,3.5-1c0.7-0.4,1.2-0.9,1.4-1.4
			c0.2-0.5,0.2-1.2,0-1.9c-0.2-0.6-0.3-1-0.2-1.3c0.1-0.3,0.3-0.6,0.7-0.8c0.4-0.2,0.8-0.4,1.3-0.4c0.4,0,0.9,0.1,1.2,0.3
			c0.3,0.2,0.6,0.4,0.8,0.7c0.2,0.2,0.3,0.5,0.4,0.7l2.6-0.6C382.1,246.2,381.4,245.5,380.5,245z"/>
	</g>
	<g>
		<g>
			<g>
				<path class="st23" d="M365.4,152.9l-26.8-15.5c-0.8-0.5-1.8-0.5-2.7,0.1l0,0l-5.9,3.4l2.7,3.7l1,1.2v26.5c0,1.6,0.8,3,2.2,3.8
					l20,11.6l0.2,1.1l4.1,5.7l6.3-3.7c0,0,0,0,0,0l0,0v0c0.6-0.4,1-1,1-1.7l0-32.3C367.7,155.2,366.8,153.7,365.4,152.9z"/>
				<path class="st24" d="M359.1,156.6L332,140.9c-1.3-0.8-3,0.2-3,1.7v32.4c0,1.6,0.8,3,2.2,3.8l27.1,15.7c1.4,0.8,3.1-0.2,3.1-1.8
					l0-32.3C361.4,158.9,360.5,157.4,359.1,156.6z"/>
			</g>
		</g>
		<g>
			<path class="st5" d="M360.4,194.6L360.4,194.6L360.4,194.6C360.3,194.6,360.4,194.6,360.4,194.6z"/>
			<path class="st25" d="M361.4,192.8l0-32.3c0-0.5-0.1-1.1-0.3-1.6l6.3-3.6c0.2,0.5,0.3,1,0.3,1.5l0,32.3c0,0.8-0.4,1.4-1,1.7v0
				l0,0c0,0,0,0,0,0l-6.2,3.7C361,194.2,361.4,193.6,361.4,192.8z"/>
		</g>
	</g>
	<g>
		<g>
			<g>
				<path class="st26" d="M396,88.3l-26.8-15.5c-0.8-0.5-1.8-0.5-2.7,0.1l0,0l-5.9,3.4l2.7,3.7l1,1.2v26.5c0,1.6,0.8,3,2.2,3.8
					l20,11.6l0.2,1.1l4.1,5.7l6.3-3.7c0,0,0,0,0,0l0,0v0c0.6-0.4,1-1,1-1.7l0-32.3C398.3,90.7,397.4,89.2,396,88.3z"/>
				<path class="st27" d="M389.8,92l-27.1-15.6c-1.3-0.8-3,0.2-3,1.7v32.4c0,1.6,0.8,3,2.2,3.8L389,130c1.4,0.8,3.1-0.2,3.1-1.8
					l0-32.3C392,94.3,391.2,92.8,389.8,92z"/>
			</g>
		</g>
		<g>
			<path class="st5" d="M391,130L391,130L391,130C391,130.1,391,130.1,391,130z"/>
			<path class="st28" d="M392,128.3l0-32.3c0-0.5-0.1-1.1-0.3-1.6l6.3-3.6c0.2,0.5,0.3,1,0.3,1.5l0,32.3c0,0.8-0.4,1.4-1,1.7v0l0,0
				c0,0,0,0,0,0L391,130C391.6,129.7,392,129.1,392,128.3z"/>
		</g>
	</g>
	<g>
		<g>
			<g>
				<path class="st29" d="M306.5,88.8l-26.8-15.5c-0.8-0.5-1.8-0.5-2.7,0.1l0,0l-5.9,3.4l2.7,3.7l1,1.2v26.5c0,1.6,0.8,3,2.2,3.8
					l20,11.6l0.2,1.1l4.1,5.7l6.3-3.7c0,0,0,0,0,0l0,0v0c0.6-0.4,1-1,1-1.7l0-32.3C308.7,91.1,307.9,89.6,306.5,88.8z"/>
				<path class="st30" d="M300.2,92.5l-27.1-15.6c-1.3-0.8-3,0.2-3,1.7V111c0,1.6,0.8,3,2.2,3.8l27.1,15.7c1.4,0.8,3.1-0.2,3.1-1.8
					l0-32.3C302.5,94.8,301.6,93.3,300.2,92.5z"/>
			</g>
		</g>
		<g>
			<path class="st5" d="M301.5,130.5L301.5,130.5L301.5,130.5C301.4,130.5,301.4,130.5,301.5,130.5z"/>
			<path class="st31" d="M302.5,128.8l0-32.3c0-0.5-0.1-1.1-0.3-1.6l6.3-3.6c0.2,0.5,0.3,1,0.3,1.5l0,32.3c0,0.8-0.4,1.4-1,1.7v0
				l0,0c0,0,0,0,0,0l-6.2,3.7C302.1,130.2,302.5,129.5,302.5,128.8z"/>
		</g>
	</g>
	<g>
		<g>
			<g>
				<path class="st32" d="M247.8,26.2L221,10.8c-0.8-0.5-1.8-0.5-2.7,0.1l0,0l-5.9,3.4l2.7,3.7l1,1.2v26.5c0,1.6,0.8,3,2.2,3.8
					l20,11.6l0.2,1.1l4.1,5.7l6.3-3.7c0,0,0,0,0,0l0,0v0c0.6-0.4,1-1,1-1.7l0-32.3C250.1,28.6,249.2,27.1,247.8,26.2z"/>
				<path class="st33" d="M241.5,29.9l-27.1-15.6c-1.3-0.8-3,0.2-3,1.7v32.4c0,1.6,0.8,3,2.2,3.8l27.1,15.7c1.4,0.8,3.1-0.2,3.1-1.8
					l0-32.3C243.8,32.2,242.9,30.7,241.5,29.9z"/>
			</g>
		</g>
		<g>
			<path class="st5" d="M242.8,67.9L242.8,67.9L242.8,67.9C242.8,68,242.8,68,242.8,67.9z"/>
			<path class="st34" d="M243.8,66.2l0-32.3c0-0.5-0.1-1.1-0.3-1.6l6.3-3.6c0.2,0.5,0.3,1,0.3,1.5l0,32.3c0,0.8-0.4,1.4-1,1.7v0l0,0
				c0,0,0,0,0,0l-6.2,3.7C243.4,67.6,243.8,67,243.8,66.2z"/>
		</g>
	</g>
	<path class="st1" d="M294.8,98.9c-1.6-2.8-3.8-5-6-6.3c-2.2-1.2-4.3-1.5-6-0.6c-2.9,1.7-3.3,6.7-1,11.8l-7.4,4.2l2.1,3.7l7.4-4.2
		c1.4,2,3.1,3.5,4.8,4.5c2.2,1.2,4.3,1.5,6,0.6C298.1,110.7,298.1,104.5,294.8,98.9z M292.7,108.9c-1.1,0.6-2.4,0.4-3.8-0.4
		c-1.4-0.8-2.8-2.2-3.8-4c-2.1-3.6-2.1-7.6,0-8.8c1.1-0.6,2.4-0.4,3.8,0.4c1.4,0.8,2.8,2.2,3.8,4
		C294.8,103.7,294.8,107.6,292.7,108.9z"/>
	<g>
		<path class="st27" d="M220,32.7c0.4,0.2,0.8,0.6,1.2,1c0.4,0.4,0.8,0.8,1.2,1.3l0.8-1.7c-1.1-1.2-2.1-2.1-3.2-2.7
			c-1.1-0.6-2-0.9-2.7-0.8c-0.8,0.1-1.4,0.5-1.8,1.2c-0.4,0.7-0.6,1.8-0.6,3.1c0,2.1,0.4,3.9,1.3,5.5c0.8,1.6,2.1,2.9,3.7,3.8
			c1.1,0.6,2.1,1,3,1.1l0-2.2c-1.1-0.2-2-0.5-2.8-1c-1.8-1.1-2.8-3-2.7-5.8c0-1.4,0.2-2.3,0.7-2.7C218.4,32.2,219.1,32.2,220,32.7z"
			/>
		<polygon class="st27" points="229,37.9 227.3,37 227.3,40.3 224.4,38.7 224.4,40.6 227.3,42.2 227.3,45.6 228.9,46.5 228.9,43.2 
			231.9,44.9 231.9,43 229,41.3 		"/>
		<polygon class="st27" points="237.7,46.4 237.7,43 236.1,42 236.1,45.4 233.2,43.7 233.2,45.6 236.1,47.3 236.1,50.6 237.7,51.6 
			237.7,48.3 240.6,49.9 240.6,48 		"/>
	</g>
	<g>
		<path class="st1" d="M368.6,90c-0.3,0.3-0.4,0.9-0.4,1.8l0,3.9l0,0.1c0,0.7-0.2,1.1-0.7,1.2c-0.5,0.1-1.1-0.2-2-0.7l0,2.7
			c0.9,0.5,1.5,1.1,2,1.7c0.5,0.6,0.7,1.3,0.7,2.1l0,3.8c0,0.9,0.1,1.6,0.4,2.3c0.3,0.7,0.7,1.3,1.4,1.9c0.6,0.6,1.5,1.2,2.6,1.8
			l0-2.6c-0.7-0.4-1.2-0.9-1.5-1.3c-0.3-0.4-0.4-0.9-0.4-1.5l0-3.7l0-0.1c0-1.5-0.8-2.8-2.4-4l0-0.1c1.6,0.7,2.4,0.2,2.4-1.3l0-3.7
			c0-0.6,0.1-0.9,0.4-1.1c0.3-0.1,0.7,0,1.5,0.4l0-2.6c-1.1-0.6-2-1-2.6-1.2C369.3,89.6,368.9,89.7,368.6,90z"/>
		<path class="st1" d="M383.7,106.3c-0.5-0.6-0.7-1.3-0.7-2l0-0.1l0-3.9c0-1.3-0.3-2.3-1-3.2c-0.7-0.9-1.8-1.8-3.5-2.8l0,2.6
			c0.7,0.4,1.2,0.9,1.5,1.3c0.3,0.4,0.4,0.9,0.4,1.5l0,3.7c0,1.6,0.8,3,2.5,4.2l0,0.1c-0.8-0.3-1.4-0.4-1.8-0.2
			c-0.4,0.2-0.6,0.7-0.6,1.4l0,0.1l0,3.7c0,0.6-0.1,1-0.4,1.1c-0.3,0.1-0.8,0-1.5-0.4l0,2.6c1.6,0.9,2.8,1.3,3.5,1.2
			c0.7-0.1,1-0.8,1-2.1l0-3.8c0-0.8,0.2-1.2,0.7-1.3c0.5-0.1,1.1,0.2,2,0.7l0-2.7C384.8,107.5,384.2,106.9,383.7,106.3z"/>
	</g>
	<g>
		<polygon class="st15" points="332.5,161.8 340.9,170.9 340.9,168.6 335.1,162.5 340.9,162.8 340.9,160.5 332.5,160.4 		"/>
		<polygon class="st15" points="341.7,173.4 344.1,174.8 348.7,163.2 346.4,161.8 		"/>
		<polygon class="st15" points="349.6,165.5 349.6,167.8 355.3,174.2 349.5,173.6 349.5,175.9 358,176.5 358,175.1 		"/>
	</g>
	<g>
		<g>
			<polygon class="st33" points="176.3,119.2 176.3,120.8 182.9,124.6 182.9,123 			"/>
			<polygon class="st35" points="176.3,122.1 176.3,123.6 182.9,127.4 182.9,125.9 			"/>
			<polygon class="st35" points="176.3,124.9 176.3,126.5 182.9,130.3 182.9,128.7 			"/>
			<polygon class="st35" points="226.1,158.1 226.1,156.5 185.4,133 185.4,134.6 			"/>
			<polygon class="st35" points="176.3,127.8 176.3,129.4 182.9,133.2 182.9,131.6 			"/>
			<polygon class="st35" points="176.3,130.7 176.3,132.2 182.9,136.1 182.9,134.5 			"/>
			<polygon class="st24" points="226.1,161 226.1,159.4 185.4,135.9 185.4,137.5 			"/>
			<polygon class="st35" points="176.3,139.3 176.3,140.9 182.9,144.7 182.9,143.1 			"/>
			<polygon class="st33" points="176.3,142.2 176.3,143.7 182.9,147.5 182.9,146 			"/>
			<polygon class="st35" points="176.3,153.6 176.3,155.2 182.9,159 182.9,157.4 			"/>
			<polygon class="st35" points="176.3,156.5 176.3,158.1 182.9,161.9 182.9,160.3 			"/>
			<g>
				<polygon class="st24" points="211.1,176.5 185.4,161.7 185.4,163.3 211.1,178.1 				"/>
				<polygon class="st35" points="212.4,177.3 212.4,178.9 226.1,186.8 226.1,185.2 				"/>
			</g>
			<g>
				<polygon class="st35" points="198.3,166.3 185.4,158.9 185.4,160.4 198.3,167.9 				"/>
				<polygon class="st35" points="199.6,167.1 199.6,168.6 226.1,183.9 226.1,182.3 				"/>
			</g>
			<polygon class="st35" points="222.6,171.7 222.6,173.3 226.1,175.3 226.1,173.7 			"/>
			<polygon class="st4" points="203.7,157.9 185.4,147.4 185.4,149 203.7,159.5 			"/>
			<polygon class="st35" points="196.2,130.7 185.4,124.4 185.4,126 196.2,132.2 			"/>
			<g>
				<polygon class="st35" points="213.9,140.9 197.5,131.4 197.5,133 213.9,142.4 				"/>
			</g>
			<polygon class="st35" points="204.4,138.2 192.9,131.6 192.9,133.2 204.4,139.8 			"/>
			<g>
				<polygon class="st4" points="216.4,145.2 205.7,139 205.7,140.6 216.4,146.8 				"/>
				<polygon class="st35" points="217.8,146 217.8,147.6 226.1,152.4 226.1,150.8 				"/>
			</g>
			<polygon class="st4" points="187.5,131.4 187.5,133 196.2,138 196.2,136.4 			"/>
			<polygon class="st35" points="222.7,151.7 197.5,137.2 197.5,138.8 222.7,153.3 			"/>
			<polygon class="st35" points="208.3,152 191.9,142.5 191.9,144.1 208.3,153.6 			"/>
			<polygon class="st35" points="222.7,160.3 209.6,152.8 209.6,154.3 222.7,161.9 			"/>
			<g>
				<polygon class="st35" points="221.3,168.1 205,158.7 205,160.3 221.3,169.6 				"/>
			</g>
			<polygon class="st24" points="212.4,165.8 212.4,167.4 221.3,172.5 221.3,170.9 			"/>
			<polygon class="st35" points="188.6,152.1 185.4,150.3 185.4,151.8 188.6,153.7 			"/>
			<g>
				<polygon class="st35" points="194.5,155.5 194.5,157.1 211.1,166.6 211.1,165.1 				"/>
				<polygon class="st35" points="193.2,154.7 189.9,152.9 189.9,154.4 193.2,156.3 				"/>
			</g>
			<polygon class="st35" points="208,166.2 189.9,155.7 189.9,157.3 208,167.7 			"/>
		</g>
		<g>
			<polygon class="st35" points="229,149.6 229,150 230.8,151.1 230.8,150.6 			"/>
			<polygon class="st35" points="229,150.4 229,150.8 230.8,151.9 230.8,151.4 			"/>
			<polygon class="st35" points="229,151.2 229,151.6 230.8,152.6 230.8,152.2 			"/>
			<polygon class="st35" points="242.7,160.3 242.7,159.9 231.5,153.4 231.5,153.8 			"/>
			<polygon class="st35" points="229,152 229,152.4 230.8,153.4 230.8,153 			"/>
			<polygon class="st35" points="229,152.7 229,153.2 230.8,154.2 230.8,153.8 			"/>
			<polygon class="st35" points="242.7,161.1 242.7,160.7 231.5,154.2 231.5,154.6 			"/>
			<polygon class="st35" points="229,155.1 229,155.6 230.8,156.6 230.8,156.2 			"/>
			<polygon class="st35" points="229,155.9 229,156.3 230.8,157.4 230.8,157 			"/>
			<polygon class="st35" points="229,159.1 229,159.5 230.8,160.6 230.8,160.1 			"/>
			<polygon class="st35" points="229,159.9 229,160.3 230.8,161.3 230.8,160.9 			"/>
			<g>
				<polygon class="st35" points="238.5,165.4 231.5,161.3 231.5,161.7 238.5,165.8 				"/>
				<polygon class="st35" points="238.9,165.6 238.9,166 242.7,168.2 242.7,167.8 				"/>
			</g>
			<g>
				<polygon class="st35" points="235,162.6 231.5,160.5 231.5,160.9 235,163 				"/>
				<polygon class="st35" points="235.4,162.8 235.4,163.2 242.7,167.4 242.7,167 				"/>
			</g>
			<polygon class="st35" points="241.7,164.1 241.7,164.5 242.7,165 242.7,164.6 			"/>
			<polygon class="st35" points="236.5,160.3 231.5,157.4 231.5,157.8 236.5,160.7 			"/>
			<polygon class="st35" points="234.4,152.7 231.5,151 231.5,151.5 234.4,153.2 			"/>
			<g>
				<polygon class="st35" points="239.3,155.6 234.8,153 234.8,153.4 239.3,156 				"/>
			</g>
			<polygon class="st35" points="236.7,154.8 233.5,153 233.5,153.4 236.7,155.3 			"/>
			<g>
				<polygon class="st35" points="240,156.8 237.1,155 237.1,155.5 240,157.2 				"/>
				<polygon class="st35" points="240.4,157 240.4,157.4 242.7,158.7 242.7,158.3 				"/>
			</g>
			<polygon class="st35" points="232,152.9 232,153.4 234.4,154.8 234.4,154.3 			"/>
			<polygon class="st35" points="241.7,158.5 234.8,154.5 234.8,155 241.7,159 			"/>
			<polygon class="st35" points="237.8,158.6 233.2,156 233.2,156.4 237.8,159.1 			"/>
			<polygon class="st35" points="241.7,160.9 238.1,158.8 238.1,159.3 241.7,161.3 			"/>
			<g>
				<polygon class="st35" points="241.3,163.1 236.9,160.5 236.9,160.9 241.3,163.5 				"/>
			</g>
			<polygon class="st35" points="238.9,162.4 238.9,162.9 241.3,164.3 241.3,163.8 			"/>
			<polygon class="st35" points="232.3,158.6 231.5,158.1 231.5,158.6 232.3,159.1 			"/>
			<g>
				<polygon class="st35" points="234,159.6 234,160 238.5,162.7 238.5,162.2 				"/>
				<polygon class="st35" points="233.6,159.4 232.7,158.9 232.7,159.3 233.6,159.8 				"/>
			</g>
			<polygon class="st35" points="237.7,162.5 232.7,159.7 232.7,160.1 237.7,163 			"/>
		</g>
		<g>
			<polygon class="st35" points="229,163 229,163.4 230.8,164.4 230.8,164 			"/>
			<polygon class="st35" points="229,163.7 229,164.2 230.8,165.2 230.8,164.8 			"/>
			<polygon class="st35" points="229,164.5 229,165 230.8,166 230.8,165.6 			"/>
			<polygon class="st35" points="242.7,173.7 242.7,173.2 231.5,166.8 231.5,167.2 			"/>
			<polygon class="st35" points="229,165.3 229,165.8 230.8,166.8 230.8,166.4 			"/>
			<polygon class="st35" points="229,166.1 229,166.6 230.8,167.6 230.8,167.2 			"/>
			<polygon class="st35" points="242.7,174.5 242.7,174 231.5,167.6 231.5,168 			"/>
			<polygon class="st35" points="229,168.5 229,168.9 230.8,170 230.8,169.5 			"/>
			<polygon class="st35" points="229,169.3 229,169.7 230.8,170.8 230.8,170.3 			"/>
			<polygon class="st35" points="229,172.4 229,172.9 230.8,173.9 230.8,173.5 			"/>
			<polygon class="st35" points="229,173.2 229,173.7 230.8,174.7 230.8,174.3 			"/>
			<g>
				<polygon class="st35" points="238.5,178.8 231.5,174.7 231.5,175.1 238.5,179.2 				"/>
				<polygon class="st35" points="238.9,179 238.9,179.4 242.7,181.6 242.7,181.1 				"/>
			</g>
			<g>
				<polygon class="st35" points="235,175.9 231.5,173.9 231.5,174.3 235,176.4 				"/>
				<polygon class="st35" points="235.4,176.1 235.4,176.6 242.7,180.8 242.7,180.4 				"/>
			</g>
			<polygon class="st35" points="241.7,177.4 241.7,177.9 242.7,178.4 242.7,178 			"/>
			<polygon class="st35" points="236.5,173.6 231.5,170.7 231.5,171.2 236.5,174.1 			"/>
			<polygon class="st35" points="234.4,166.1 231.5,164.4 231.5,164.8 234.4,166.5 			"/>
			<g>
				<polygon class="st35" points="239.3,168.9 234.8,166.3 234.8,166.8 239.3,169.4 				"/>
			</g>
			<polygon class="st35" points="236.7,168.2 233.5,166.4 233.5,166.8 236.7,168.6 			"/>
			<g>
				<polygon class="st35" points="240,170.1 237.1,168.4 237.1,168.9 240,170.6 				"/>
				<polygon class="st35" points="240.4,170.3 240.4,170.8 242.7,172.1 242.7,171.7 				"/>
			</g>
			<polygon class="st35" points="232,166.3 232,166.8 234.4,168.1 234.4,167.7 			"/>
			<polygon class="st35" points="241.7,171.9 234.8,167.9 234.8,168.3 241.7,172.3 			"/>
			<polygon class="st35" points="237.8,172 233.2,169.4 233.2,169.8 237.8,172.4 			"/>
			<polygon class="st35" points="241.7,174.3 238.1,172.2 238.1,172.6 241.7,174.7 			"/>
			<g>
				<polygon class="st35" points="241.3,176.4 236.9,173.8 236.9,174.3 241.3,176.9 				"/>
			</g>
			<polygon class="st35" points="238.9,175.8 238.9,176.2 241.3,177.6 241.3,177.2 			"/>
			<polygon class="st35" points="232.3,172 231.5,171.5 231.5,171.9 232.3,172.5 			"/>
			<g>
				<polygon class="st35" points="234,173 234,173.4 238.5,176 238.5,175.6 				"/>
				<polygon class="st35" points="233.6,172.8 232.7,172.2 232.7,172.7 233.6,173.2 				"/>
			</g>
			<polygon class="st35" points="237.7,175.9 232.7,173 232.7,173.5 237.7,176.3 			"/>
		</g>
		<g>
			<polygon class="st35" points="229,176.3 229,176.8 230.8,177.8 230.8,177.4 			"/>
			<polygon class="st35" points="229,177.1 229,177.6 230.8,178.6 230.8,178.2 			"/>
			<polygon class="st35" points="229,177.9 229,178.3 230.8,179.4 230.8,179 			"/>
			<polygon class="st35" points="242.7,187 242.7,186.6 231.5,180.1 231.5,180.6 			"/>
			<polygon class="st35" points="229,178.7 229,179.1 230.8,180.2 230.8,179.7 			"/>
			<polygon class="st35" points="229,179.5 229,179.9 230.8,181 230.8,180.5 			"/>
			<polygon class="st35" points="242.7,187.8 242.7,187.4 231.5,180.9 231.5,181.4 			"/>
			<polygon class="st35" points="229,181.9 229,182.3 230.8,183.3 230.8,182.9 			"/>
			<polygon class="st35" points="229,182.7 229,183.1 230.8,184.1 230.8,183.7 			"/>
			<polygon class="st35" points="229,185.8 229,186.2 230.8,187.3 230.8,186.9 			"/>
			<polygon class="st35" points="229,186.6 229,187 230.8,188.1 230.8,187.7 			"/>
			<g>
				<polygon class="st35" points="238.5,192.1 231.5,188 231.5,188.5 238.5,192.6 				"/>
				<polygon class="st35" points="238.9,192.3 238.9,192.8 242.7,194.9 242.7,194.5 				"/>
			</g>
			<g>
				<polygon class="st35" points="235,189.3 231.5,187.3 231.5,187.7 235,189.7 				"/>
				<polygon class="st35" points="235.4,189.5 235.4,190 242.7,194.2 242.7,193.7 				"/>
			</g>
			<polygon class="st35" points="241.7,190.8 241.7,191.2 242.7,191.8 242.7,191.4 			"/>
			<polygon class="st35" points="236.5,187 231.5,184.1 231.5,184.5 236.5,187.4 			"/>
			<polygon class="st35" points="234.4,179.5 231.5,177.8 231.5,178.2 234.4,179.9 			"/>
			<g>
				<polygon class="st35" points="239.3,182.3 234.8,179.7 234.8,180.1 239.3,182.7 				"/>
			</g>
			<polygon class="st35" points="236.7,181.6 233.5,179.7 233.5,180.2 236.7,182 			"/>
			<g>
				<polygon class="st35" points="240,183.5 237.1,181.8 237.1,182.2 240,183.9 				"/>
				<polygon class="st35" points="240.4,183.7 240.4,184.1 242.7,185.5 242.7,185 				"/>
			</g>
			<polygon class="st35" points="232,179.7 232,180.1 234.4,181.5 234.4,181.1 			"/>
			<polygon class="st35" points="241.7,185.3 234.8,181.3 234.8,181.7 241.7,185.7 			"/>
			<polygon class="st35" points="237.8,185.4 233.2,182.8 233.2,183.2 237.8,185.8 			"/>
			<polygon class="st35" points="241.7,187.7 238.1,185.6 238.1,186 241.7,188.1 			"/>
			<g>
				<polygon class="st35" points="241.3,189.8 236.9,187.2 236.9,187.6 241.3,190.2 				"/>
			</g>
			<polygon class="st35" points="238.9,189.2 238.9,189.6 241.3,191 241.3,190.6 			"/>
			<polygon class="st35" points="232.3,185.4 231.5,184.9 231.5,185.3 232.3,185.8 			"/>
			<g>
				<polygon class="st35" points="234,186.3 234,186.8 238.5,189.4 238.5,189 				"/>
				<polygon class="st35" points="233.6,186.1 232.7,185.6 232.7,186 233.6,186.6 				"/>
			</g>
			<polygon class="st35" points="237.7,189.3 232.7,186.4 232.7,186.8 237.7,189.7 			"/>
		</g>
		<g>
			<polygon class="st35" points="229,189.7 229,190.1 230.8,191.2 230.8,190.8 			"/>
			<polygon class="st35" points="229,190.5 229,190.9 230.8,192 230.8,191.5 			"/>
			<polygon class="st35" points="229,191.3 229,191.7 230.8,192.8 230.8,192.3 			"/>
			<polygon class="st35" points="242.7,200.4 242.7,200 231.5,193.5 231.5,193.9 			"/>
			<polygon class="st35" points="229,192.1 229,192.5 230.8,193.6 230.8,193.1 			"/>
			<polygon class="st35" points="229,192.9 229,193.3 230.8,194.3 230.8,193.9 			"/>
			<polygon class="st35" points="242.7,201.2 242.7,200.8 231.5,194.3 231.5,194.7 			"/>
			<polygon class="st35" points="229,195.2 229,195.7 230.8,196.7 230.8,196.3 			"/>
			<polygon class="st35" points="229,196 229,196.5 230.8,197.5 230.8,197.1 			"/>
			<polygon class="st35" points="241.7,204.2 241.7,204.6 242.7,205.2 242.7,204.7 			"/>
			<polygon class="st35" points="236.5,200.4 231.5,197.5 231.5,197.9 236.5,200.8 			"/>
			<polygon class="st35" points="234.4,192.9 231.5,191.1 231.5,191.6 234.4,193.3 			"/>
			<g>
				<polygon class="st35" points="239.3,195.7 234.8,193.1 234.8,193.5 239.3,196.1 				"/>
			</g>
			<polygon class="st35" points="236.7,194.9 233.5,193.1 233.5,193.6 236.7,195.4 			"/>
			<g>
				<polygon class="st35" points="240,196.9 237.1,195.2 237.1,195.6 240,197.3 				"/>
				<polygon class="st35" points="240.4,197.1 240.4,197.5 242.7,198.8 242.7,198.4 				"/>
			</g>
			<polygon class="st35" points="232,193.1 232,193.5 234.4,194.9 234.4,194.4 			"/>
			<polygon class="st35" points="241.7,198.7 234.8,194.7 234.8,195.1 241.7,199.1 			"/>
			<polygon class="st35" points="237.8,198.7 233.2,196.1 233.2,196.6 237.8,199.2 			"/>
			<polygon class="st35" points="241.7,201 238.1,199 238.1,199.4 241.7,201.5 			"/>
			<g>
				<polygon class="st35" points="241.3,203.2 236.9,200.6 236.9,201 241.3,203.6 				"/>
			</g>
			<polygon class="st35" points="238.9,202.6 238.9,203 241.3,204.4 241.3,204 			"/>
			<polygon class="st35" points="232.3,198.8 231.5,198.3 231.5,198.7 232.3,199.2 			"/>
			<g>
				<polygon class="st35" points="234,199.7 234,200.1 238.5,202.8 238.5,202.3 				"/>
				<polygon class="st35" points="233.6,199.5 232.7,199 232.7,199.4 233.6,199.9 				"/>
			</g>
			<polygon class="st35" points="237.7,202.6 232.7,199.8 232.7,200.2 237.7,203.1 			"/>
		</g>
		<g>
			<path class="st24" d="M172.1,116.8l-2.2-1.3c-0.1-0.1-0.2,0-0.2,0.1v2.6c0,0.1,0.1,0.2,0.2,0.3l2.2,1.3c0.1,0.1,0.2,0,0.2-0.1
				v-2.6C172.3,117,172.2,116.8,172.1,116.8z"/>
			<path class="st24" d="M172.1,120.7l-2.2-1.3c-0.1-0.1-0.2,0-0.2,0.1v2.6c0,0.1,0.1,0.2,0.2,0.3l2.2,1.3c0.1,0.1,0.2,0,0.2-0.1
				V121C172.3,120.8,172.2,120.7,172.1,120.7z"/>
			<path class="st24" d="M172.1,124.6l-2.2-1.3c-0.1-0.1-0.2,0-0.2,0.1v2.6c0,0.1,0.1,0.2,0.2,0.3l2.2,1.3c0.1,0.1,0.2,0,0.2-0.1
				v-2.6C172.3,124.7,172.2,124.6,172.1,124.6z"/>
			<path class="st24" d="M172.1,128.4l-2.2-1.3c-0.1-0.1-0.2,0-0.2,0.1v2.6c0,0.1,0.1,0.2,0.2,0.3l2.2,1.3c0.1,0.1,0.2,0,0.2-0.1
				v-2.6C172.3,128.6,172.2,128.5,172.1,128.4z"/>
			<path class="st24" d="M172.1,132.3l-2.2-1.3c-0.1-0.1-0.2,0-0.2,0.1v2.6c0,0.1,0.1,0.2,0.2,0.3l2.2,1.3c0.1,0.1,0.2,0,0.2-0.1
				v-2.6C172.3,132.5,172.2,132.4,172.1,132.3z"/>
			<path class="st24" d="M172.1,136.2l-2.2-1.3c-0.1-0.1-0.2,0-0.2,0.1v2.6c0,0.1,0.1,0.2,0.2,0.3l2.2,1.3c0.1,0.1,0.2,0,0.2-0.1
				v-2.6C172.3,136.4,172.2,136.3,172.1,136.2z"/>
			<path class="st24" d="M172.1,140.1l-2.2-1.3c-0.1-0.1-0.2,0-0.2,0.1v2.6c0,0.1,0.1,0.2,0.2,0.3l2.2,1.3c0.1,0.1,0.2,0,0.2-0.1
				v-2.6C172.3,140.3,172.2,140.2,172.1,140.1z"/>
			<path class="st24" d="M172.1,144l-2.2-1.3c-0.1-0.1-0.2,0-0.2,0.1v2.6c0,0.1,0.1,0.2,0.2,0.3l2.2,1.3c0.1,0.1,0.2,0,0.2-0.1v-2.6
				C172.3,144.2,172.2,144.1,172.1,144z"/>
			<path class="st24" d="M172.1,147.9l-2.2-1.3c-0.1-0.1-0.2,0-0.2,0.1v2.6c0,0.1,0.1,0.2,0.2,0.3l2.2,1.3c0.1,0.1,0.2,0,0.2-0.1
				v-2.6C172.3,148.1,172.2,148,172.1,147.9z"/>
			<path class="st24" d="M172.1,151.8l-2.2-1.3c-0.1-0.1-0.2,0-0.2,0.1v2.6c0,0.1,0.1,0.2,0.2,0.3l2.2,1.3c0.1,0.1,0.2,0,0.2-0.1
				v-2.6C172.3,152,172.2,151.9,172.1,151.8z"/>
			<path class="st24" d="M172.1,155.7l-2.2-1.3c-0.1-0.1-0.2,0-0.2,0.1v2.6c0,0.1,0.1,0.2,0.2,0.3l2.2,1.3c0.1,0.1,0.2,0,0.2-0.1
				V156C172.3,155.9,172.2,155.7,172.1,155.7z"/>
			<path class="st24" d="M172.1,159.6l-2.2-1.3c-0.1-0.1-0.2,0-0.2,0.1v2.6c0,0.1,0.1,0.2,0.2,0.3l2.2,1.3c0.1,0.1,0.2,0,0.2-0.1
				v-2.6C172.3,159.8,172.2,159.6,172.1,159.6z"/>
		</g>
	</g>
	<g class="st0">
		<g>
			<polygon class="st1" points="274.2,130.6 274.2,132.1 280.8,135.9 280.8,134.4 			"/>
			<polygon class="st1" points="274.2,133.4 274.2,135 280.8,138.8 280.8,137.2 			"/>
			<polygon class="st1" points="274.2,136.3 274.2,137.9 280.8,141.7 280.8,140.1 			"/>
			<polygon class="st1" points="323.9,169.4 323.9,167.9 283.2,144.4 283.2,146 			"/>
			<polygon class="st1" points="274.2,139.2 274.2,140.7 280.8,144.5 280.8,143 			"/>
			<polygon class="st1" points="274.2,142 274.2,143.6 280.8,147.4 280.8,145.8 			"/>
			<polygon class="st1" points="323.9,172.3 323.9,170.7 283.2,147.3 283.2,148.8 			"/>
			<polygon class="st1" points="274.2,150.6 274.2,152.2 280.8,156 280.8,154.4 			"/>
			<polygon class="st1" points="274.2,153.5 274.2,155.1 280.8,158.9 280.8,157.3 			"/>
			<polygon class="st1" points="274.2,165 274.2,166.5 280.8,170.4 280.8,168.8 			"/>
			<polygon class="st1" points="274.2,167.8 274.2,169.4 280.8,173.2 280.8,171.6 			"/>
			<g>
				<polygon class="st1" points="308.9,187.9 283.2,173.1 283.2,174.6 308.9,189.5 				"/>
				<polygon class="st1" points="310.3,188.7 310.3,190.2 323.9,198.1 323.9,196.6 				"/>
			</g>
			<g>
				<polygon class="st1" points="296.1,177.6 283.2,170.2 283.2,171.8 296.1,179.2 				"/>
				<polygon class="st1" points="297.5,178.4 297.5,180 323.9,195.3 323.9,193.7 				"/>
			</g>
			<polygon class="st1" points="320.5,183.1 320.5,184.6 323.9,186.7 323.9,185.1 			"/>
			<polygon class="st1" points="301.5,169.3 283.2,158.7 283.2,160.3 301.5,170.9 			"/>
			<polygon class="st1" points="294,142 283.2,135.8 283.2,137.4 294,143.6 			"/>
			<g>
				<polygon class="st1" points="311.7,152.2 295.4,142.8 295.4,144.4 311.7,153.8 				"/>
			</g>
			<polygon class="st1" points="302.2,149.6 290.7,143 290.7,144.5 302.2,151.2 			"/>
			<g>
				<polygon class="st1" points="314.3,156.6 303.6,150.4 303.6,151.9 314.3,158.1 				"/>
				<polygon class="st1" points="315.6,157.3 315.6,158.9 323.9,163.7 323.9,162.1 				"/>
			</g>
			<polygon class="st1" points="285.4,142.8 285.4,144.3 294,149.3 294,147.8 			"/>
			<polygon class="st1" points="320.6,163 295.4,148.5 295.4,150.1 320.6,164.6 			"/>
			<polygon class="st1" points="306.1,163.3 289.7,153.9 289.7,155.4 306.1,164.9 			"/>
			<polygon class="st1" points="320.6,171.7 307.5,164.1 307.5,165.7 320.6,173.2 			"/>
			<g>
				<polygon class="st1" points="319.1,179.4 302.9,170.1 302.9,171.6 319.1,181 				"/>
			</g>
			<polygon class="st1" points="310.3,177.2 310.3,178.8 319.1,183.9 319.1,182.3 			"/>
			<polygon class="st1" points="286.4,163.4 283.2,161.6 283.2,163.2 286.4,165 			"/>
			<g>
				<polygon class="st1" points="292.4,166.9 292.4,168.4 308.9,178 308.9,176.4 				"/>
				<polygon class="st1" points="291,166.1 287.8,164.2 287.8,165.8 291,167.7 				"/>
			</g>
			<polygon class="st1" points="305.9,177.5 287.8,167.1 287.8,168.7 305.9,179.1 			"/>
		</g>
	</g>
	<g class="st0">
		<g>
			<polygon class="st1" points="334.8,32.3 334.8,33.8 341.4,37.6 341.4,36.1 			"/>
			<polygon class="st1" points="334.8,35.1 334.8,36.7 341.4,40.5 341.4,38.9 			"/>
			<polygon class="st1" points="334.8,38 334.8,39.6 341.4,43.4 341.4,41.8 			"/>
			<polygon class="st1" points="384.6,71.2 384.6,69.6 343.9,46.1 343.9,47.7 			"/>
			<polygon class="st1" points="334.8,40.9 334.8,42.4 341.4,46.2 341.4,44.7 			"/>
			<polygon class="st1" points="334.8,43.7 334.8,45.3 341.4,49.1 341.4,47.5 			"/>
			<polygon class="st1" points="384.6,74 384.6,72.4 343.9,49 343.9,50.5 			"/>
			<polygon class="st1" points="334.8,52.3 334.8,53.9 341.4,57.7 341.4,56.1 			"/>
			<polygon class="st1" points="334.8,55.2 334.8,56.8 341.4,60.6 341.4,59 			"/>
			<polygon class="st1" points="334.8,66.7 334.8,68.3 341.4,72.1 341.4,70.5 			"/>
			<polygon class="st1" points="334.8,69.6 334.8,71.1 341.4,74.9 341.4,73.4 			"/>
			<g>
				<polygon class="st1" points="369.5,89.6 343.9,74.8 343.9,76.4 369.5,91.2 				"/>
				<polygon class="st1" points="370.9,90.4 370.9,91.9 384.6,99.8 384.6,98.3 				"/>
			</g>
			<g>
				<polygon class="st1" points="356.8,79.4 343.9,71.9 343.9,73.5 356.8,80.9 				"/>
				<polygon class="st1" points="358.1,80.1 358.1,81.7 384.6,97 384.6,95.4 				"/>
			</g>
			<polygon class="st1" points="381.1,84.8 381.1,86.4 384.6,88.4 384.6,86.8 			"/>
			<polygon class="st1" points="362.2,71 343.9,60.4 343.9,62 362.2,72.6 			"/>
			<polygon class="st1" points="354.7,43.7 343.9,37.5 343.9,39.1 354.7,45.3 			"/>
			<g>
				<polygon class="st1" points="372.4,53.9 356,44.5 356,46.1 372.4,55.5 				"/>
			</g>
			<polygon class="st1" points="362.8,51.3 351.3,44.7 351.3,46.2 362.8,52.9 			"/>
			<g>
				<polygon class="st1" points="374.9,58.3 364.2,52.1 364.2,53.7 374.9,59.8 				"/>
				<polygon class="st1" points="376.3,59.1 376.3,60.6 384.6,65.4 384.6,63.8 				"/>
			</g>
			<polygon class="st1" points="346,44.5 346,46 354.7,51 354.7,49.5 			"/>
			<polygon class="st1" points="381.2,64.8 356,50.2 356,51.8 381.2,66.3 			"/>
			<polygon class="st1" points="366.8,65.1 350.3,55.6 350.3,57.1 366.8,66.6 			"/>
			<polygon class="st1" points="381.2,73.4 368.1,65.8 368.1,67.4 381.2,74.9 			"/>
			<g>
				<polygon class="st1" points="379.7,81.1 363.5,71.8 363.5,73.3 379.7,82.7 				"/>
			</g>
			<polygon class="st1" points="370.9,78.9 370.9,80.5 379.7,85.6 379.7,84 			"/>
			<polygon class="st1" points="347.1,65.1 343.9,63.3 343.9,64.9 347.1,66.7 			"/>
			<g>
				<polygon class="st1" points="353,68.6 353,70.2 369.5,79.7 369.5,78.1 				"/>
				<polygon class="st1" points="351.7,67.8 348.4,65.9 348.4,67.5 351.7,69.4 				"/>
			</g>
			<polygon class="st1" points="366.5,79.2 348.4,68.8 348.4,70.4 366.5,80.8 			"/>
		</g>
	</g>
	<path class="st13" d="M215.6,233.8c0,0-3.7-1.7-8.1,1.2c-4.4,2.9-7.3,6.9-5.5,8.4c1.8,1.5,5.2,3.1,7.5,2.3
		C211.7,245,222.8,238.4,215.6,233.8z"/>
	<g>
		<polygon class="st4" points="307.8,216.7 273.3,236.3 251.3,223.5 285.8,204 		"/>
		<g>
			<polygon class="st36" points="280,235.8 280,236.6 314.6,216.8 314.6,216.2 			"/>
			<polygon class="st37" points="314.6,216.2 280,235.8 258,223.1 292.6,203.5 			"/>
			<polygon class="st38" points="280,235.8 280,236.6 258,223.8 258,223.1 			"/>
		</g>
		<polygon class="st39" points="292.3,205.6 305.6,213.2 305.1,213.6 291.8,205.9 		"/>
		<polygon class="st39" points="291,206.4 304.3,214 303.7,214.4 290.4,206.7 		"/>
		<polygon class="st39" points="287.7,208.2 306.1,218.8 305.5,219.1 287.2,208.5 		"/>
		<polygon class="st39" points="286.5,208.9 304.8,219.5 304.2,219.8 285.9,209.2 		"/>
		<polygon class="st39" points="285.2,209.6 303.5,220.2 302.9,220.5 284.6,209.9 		"/>
		<polygon class="st39" points="283.9,210.3 302.3,220.9 301.7,221.2 283.4,210.7 		"/>
		<polygon class="st39" points="282.7,211.1 301,221.6 300.4,222 282.1,211.4 		"/>
		<polygon class="st39" points="281.4,211.8 299.7,222.4 299.1,222.7 280.8,212.1 		"/>
		<polygon class="st39" points="280.1,212.5 298.5,223.1 297.9,223.4 279.5,212.8 		"/>
		<polygon class="st39" points="278.9,213.2 297.2,223.8 296.6,224.1 278.3,213.5 		"/>
		<polygon class="st39" points="277.6,213.9 295.9,224.5 295.3,224.8 277,214.3 		"/>
		<polygon class="st39" points="276.3,214.7 294.6,225.2 294.1,225.6 275.7,215 		"/>
		<polygon class="st39" points="275.1,215.4 293.4,226 292.8,226.3 274.5,215.7 		"/>
		<polygon class="st39" points="273.8,216.1 292.1,226.7 291.5,227 273.2,216.4 		"/>
		<polygon class="st39" points="272.5,216.8 290.8,227.4 290.3,227.7 271.9,217.1 		"/>
		<polygon class="st39" points="271.3,217.5 289.6,228.1 289,228.4 270.7,217.9 		"/>
		<polygon class="st39" points="270,218.3 288.3,228.8 287.7,229.2 269.4,218.6 		"/>
	</g>
	<g>
		<path class="st10" d="M255.1,228.1h-3.2v3.5h3.2c1.2,0,2.2,1,2.2,2.2v5.7c0,1.2-1,2.2-2.2,2.2h-4.7v3.5h4.7c3.1,0,5.7-2.5,5.7-5.7
			v-5.7C260.7,230.6,258.2,228.1,255.1,228.1z"/>
		<path class="st5" d="M253.8,226.2v19.6c0,3-4.5,5.5-10.1,5.5c-5.6,0-10.1-2.5-10.1-5.5v-19.6H253.8z"/>
		<path class="st1" d="M233.6,226.2c0,3,4.5,5.5,10.1,5.5c5.6,0,10.1-2.5,10.1-5.5c0-3-4.5-5.5-10.1-5.5
			C238.1,220.7,233.6,223.1,233.6,226.2z"/>
		<path class="st10" d="M235.6,226.1c0,2.4,3.6,4.3,8.1,4.3c4.5,0,8.1-1.9,8.1-4.3c0-2.4-3.6-4.3-8.1-4.3
			C239.2,221.8,235.6,223.7,235.6,226.1z"/>
		<path class="st9" d="M243.7,224.6c-3.5,0-6.6,1.2-7.7,2.9c1.1,1.7,4.1,2.9,7.7,2.9c3.5,0,6.6-1.2,7.7-2.9
			C250.3,225.8,247.3,224.6,243.7,224.6z"/>
		<path class="st10" d="M247.5,231.3v19.6c2-0.4,3.7-1.2,4.8-2.2v-19.6C251.2,230,249.5,230.8,247.5,231.3z"/>
	</g>
</g>
</svg>
